<svg xmlns="http://www.w3.org/2000/svg" width="31.245" height="32" viewBox="0 0 31.245 32">
  <g id="Group_92" data-name="Group 92" transform="translate(-12863 -8194)">
    <g id="Path_38" data-name="Path 38" transform="translate(12866.877 8201.434)" fill="none" stroke-linecap="round">
      <path d="M2.679,0H20.811a4.679,4.679,0,0,1,4.679,4.679L23.736,19.887a4.679,4.679,0,0,1-4.679,4.679H4.434A4.679,4.679,0,0,1-.245,19.887L-2,4.679A4.679,4.679,0,0,1,2.679,0Z" stroke="none"/>
      <path d="M 2.679243087768555 2 C 1.235176086425781 2 0.05427742004394531 3.148475646972656 0.001817703247070312 4.5799560546875 L 1.75471305847168 19.77178955078125 L 1.75471305847168 19.88678932189941 C 1.75471305847168 21.36412811279297 2.956623077392578 22.5660400390625 4.433963775634766 22.5660400390625 L 19.05660247802734 22.5660400390625 C 20.53394317626953 22.5660400390625 21.73585319519043 21.36412811279297 21.73585319519043 19.88678932189941 L 21.73585319519043 19.77178955078125 L 23.48874855041504 4.5799560546875 C 23.43628883361816 3.148475646972656 22.25539016723633 2 20.81132316589355 2 L 2.679243087768555 2 M 2.679243087768555 0 L 20.81132316589355 0 C 23.39559364318848 0 25.49056243896484 2.094968795776367 25.49056243896484 4.679248809814453 L 23.73585319519043 19.88678932189941 C 23.73585319519043 22.4710693359375 21.64088249206543 24.56603813171387 19.05660247802734 24.56603813171387 L 4.433963775634766 24.56603813171387 C 1.84968376159668 24.56603813171387 -0.2452869415283203 22.4710693359375 -0.2452869415283203 19.88678932189941 L -1.999996185302734 4.679248809814453 C -1.999996185302734 2.094968795776367 0.09497261047363281 0 2.679243087768555 0 Z" stroke="none" fill="#fff"/>
    </g>
    <line id="Line_16" data-name="Line 16" x2="1.17" y2="15.208" transform="translate(12871.604 8206.405)" fill="none" stroke="#fff" stroke-linecap="round" stroke-width="2"/>
    <line id="Line_17" data-name="Line 17" y2="15.208" transform="translate(12878.623 8206.405)" fill="none" stroke="#fff" stroke-linecap="round" stroke-width="2"/>
    <line id="Line_18" data-name="Line 18" x1="1.17" y2="15.208" transform="translate(12884.472 8206.405)" fill="none" stroke="#fff" stroke-linecap="round" stroke-width="2"/>
    <line id="Line_19" data-name="Line 19" x2="29.245" transform="translate(12864 8198.217)" fill="none" stroke="#fff" stroke-linecap="round" stroke-width="2"/>
    <line id="Line_20" data-name="Line 20" x2="8.774" transform="translate(12874.236 8195)" fill="none" stroke="#fff" stroke-linecap="round" stroke-width="2"/>
  </g>
</svg>
